<svg width="215" height="36" viewBox="0 0 215 36" fill="none" xmlns="http://www.w3.org/2000/svg">
<path fill-rule="evenodd" clip-rule="evenodd" d="M207.115 16.0247C208.229 16.3885 208.835 17.575 208.461 18.6746C208.088 19.7695 206.886 20.358 205.776 19.9956C204.371 19.537 203.22 19.306 202.381 19.306C200.28 19.306 199.449 16.6186 201.206 15.4711C202.896 14.3679 204.066 11.3758 203.82 8.64393C203.557 5.7226 201.944 4.18366 199.13 4.18366C196.281 4.18366 194.497 5.87059 194.238 8.79051C193.984 11.6433 195.388 14.374 197.54 15.2962C199.483 16.1286 199.127 18.9372 197.04 19.2779C191.464 20.1879 188.682 22.6508 188.241 26.9744C188.123 28.1254 187.08 28.9608 185.915 28.8467C184.749 28.7325 183.893 27.7086 184.011 26.556C184.519 21.5792 187.31 18.0665 192.179 16.2318C190.551 14.0911 189.751 11.2556 190.003 8.42626C190.453 3.35401 194.05 0 199.13 0C204.18 0 207.598 3.20455 208.055 8.27437C208.289 10.8702 207.687 13.6167 206.427 15.8102C206.651 15.8768 206.881 15.9483 207.115 16.0247ZM212.488 21.9309V28.2398C212.488 29.8179 210.885 31 208.958 31C207.032 31 205.429 29.8179 205.429 28.2398C205.429 26.6617 207.032 25.4796 208.958 25.4796C209.249 25.4796 209.537 25.5066 209.816 25.5599L209.714 19.3571C209.714 18.242 210.63 17.1429 211.643 17.1429H213.786C214.533 17.1429 215 17.7243 215 18.5V20.2143C215 20.99 214.533 21.5714 213.786 21.5714H212.557C212.517 21.6919 212.488 21.8534 212.488 21.9309ZM21.0469 26.2969V7.79688C21.0469 6.9427 21.237 6.29688 21.6172 5.85938C21.9974 5.42187 22.5104 5.20312 23.1562 5.20312C23.8021 5.20312 24.3229 5.41927 24.7188 5.85156C25.1146 6.28386 25.3125 6.93229 25.3125 7.79688V26.2969C25.3125 27.1615 25.112 27.8099 24.7109 28.2422C24.3099 28.6745 23.7917 28.8906 23.1562 28.8906C22.5312 28.8906 22.0234 28.6667 21.6328 28.2188C21.2422 27.7708 21.0469 27.1302 21.0469 26.2969ZM4.64062 19.5781H8.89062C11.7344 19.5781 13.875 18.9766 15.3125 17.7734C16.75 16.5703 17.4688 14.8021 17.4688 12.4688C17.4688 11.375 17.2917 10.3906 16.9375 9.51562C16.5833 8.64062 16.0651 7.90104 15.3828 7.29688C14.7005 6.69271 13.8906 6.26042 12.9531 6C12.0052 5.72917 10.6511 5.59375 8.89062 5.59375H2.9375C1.91666 5.59375 1.17188 5.8125 0.703125 6.25C0.234373 6.6875 0 7.41666 0 8.4375V26.0938C0 27.0104 0.21354 27.7057 0.640625 28.1797C1.06771 28.6536 1.6302 28.8906 2.32812 28.8906C2.9948 28.8906 3.54687 28.651 3.98438 28.1719C4.42188 27.6927 4.64062 26.9896 4.64062 26.0625V19.5781ZM4.64062 9.07812H7.76562C9.83855 9.07812 11.2083 9.41666 11.875 10.0938C12.4688 10.7292 12.7656 11.5521 12.7656 12.5625C12.7656 13.4063 12.5729 14.0885 12.1875 14.6094C11.8021 15.1302 11.2422 15.5052 10.5078 15.7344C9.77343 15.9635 8.85938 16.0781 7.76562 16.0781H4.64062V9.07812ZM37.5078 28.2891C38.4714 27.888 39.4687 27.2865 40.5 26.4844C40.9792 27.2656 41.4323 27.862 41.8594 28.2734C42.2865 28.6849 42.7187 28.8906 43.1562 28.8906C43.6771 28.8906 44.1432 28.7109 44.5547 28.3516C44.9661 27.9922 45.1719 27.5938 45.1719 27.1562C45.1719 26.9062 45.0391 26.3464 44.7734 25.4766C44.5078 24.6068 44.375 23.7708 44.375 22.9688C44.3854 22.1146 44.3932 21.3385 44.3984 20.6406C44.4036 19.9427 44.4062 19.0938 44.4062 18.0938C44.4062 16.5104 44.1849 15.2396 43.7422 14.2812C43.2995 13.3229 42.5417 12.6224 41.4688 12.1797C40.3958 11.737 38.9219 11.5156 37.0469 11.5156C35.3698 11.5156 33.9688 11.7448 32.8438 12.2031C31.7187 12.6615 30.8906 13.2448 30.3594 13.9531C29.8281 14.6615 29.5625 15.3906 29.5625 16.1406C29.5625 16.6198 29.737 17.013 30.0859 17.3203C30.4349 17.6276 30.849 17.7812 31.3281 17.7812C31.8594 17.7812 32.2057 17.6849 32.3672 17.4922C32.5286 17.2995 32.8047 16.901 33.1953 16.2969C33.5859 15.6927 34.0547 15.2396 34.6016 14.9375C35.1484 14.6354 35.9635 14.4844 37.0469 14.4844C38.3073 14.4844 39.138 14.7474 39.5391 15.2734C39.9401 15.7995 40.1667 16.625 40.2188 17.75C39.3229 18.0104 38.4922 18.2318 37.7266 18.4141C36.9609 18.5964 36.0417 18.7969 34.9688 19.0156C33.8958 19.2344 33.224 19.375 32.9531 19.4375C31.6615 19.7188 30.6458 20.2708 29.9062 21.0938C29.1667 21.9167 28.7969 22.9115 28.7969 24.0781C28.7969 24.9427 29.0208 25.7448 29.4688 26.4844C29.9167 27.224 30.5547 27.8099 31.3828 28.2422C32.2109 28.6745 33.1719 28.8906 34.2656 28.8906C35.4635 28.8906 36.5443 28.6901 37.5078 28.2891ZM40.2188 20.3125C39.5937 20.5417 38.6849 20.7839 37.4922 21.0391C36.2995 21.2943 35.474 21.4818 35.0156 21.6016C34.5573 21.7214 34.1198 21.9557 33.7031 22.3047C33.2865 22.6536 33.0781 23.1406 33.0781 23.7656C33.0781 24.4115 33.3229 24.9609 33.8125 25.4141C34.3021 25.8672 34.9427 26.0938 35.7344 26.0938C36.5781 26.0938 37.3568 25.9089 38.0703 25.5391C38.7839 25.1693 39.3073 24.6927 39.6406 24.1094C40.026 23.4635 40.2188 22.401 40.2188 20.9219V20.3125ZM53.0625 28.4688L52.6719 29.4219C52.3802 30.1198 52.1224 30.6484 51.8984 31.0078C51.6745 31.3672 51.4219 31.6198 51.1406 31.7656C50.8594 31.9115 50.474 31.9844 49.9844 31.9844C49.7865 31.9844 49.5521 31.9531 49.2812 31.8906C49.0625 31.8281 48.8385 31.7969 48.6094 31.7969C48.026 31.7969 47.5859 31.9297 47.2891 32.1953C46.9922 32.4609 46.8438 32.8385 46.8438 33.3281C46.8438 34.0469 47.1562 34.5417 47.7812 34.8125C48.4063 35.0833 49.3437 35.2188 50.5938 35.2188C51.875 35.2188 52.8932 35.0234 53.6484 34.6328C54.4036 34.2422 55.0104 33.6823 55.4688 32.9531C55.9271 32.224 56.3958 31.2188 56.875 29.9375L62.4375 15.375C62.5729 15 62.6875 14.6302 62.7812 14.2656C62.875 13.901 62.9427 13.6198 62.9844 13.4219C62.9844 13.099 62.9036 12.7917 62.7422 12.5C62.5807 12.2083 62.3516 11.9766 62.0547 11.8047C61.7578 11.6328 61.4479 11.5469 61.125 11.5469C60.6771 11.5469 60.3307 11.625 60.0859 11.7812C59.8411 11.9375 59.6094 12.2396 59.3906 12.6875C59.1719 13.1354 58.9271 13.7552 58.6562 14.5469L55.2344 24.3125L51.625 13.8125C51.3854 13.0833 51.1094 12.5234 50.7969 12.1328C50.4844 11.7422 50.0208 11.5469 49.4062 11.5469C49.0521 11.5469 48.7109 11.6406 48.3828 11.8281C48.0547 12.0156 47.7969 12.2656 47.6094 12.5781C47.4219 12.8906 47.3281 13.2292 47.3281 13.5938C47.3281 13.9375 47.4896 14.4896 47.8125 15.25L53.0625 28.4688ZM66.0781 26.2969V7.79688C66.0781 6.9427 66.2682 6.29688 66.6484 5.85938C67.0286 5.42187 67.5417 5.20312 68.1875 5.20312C68.8333 5.20312 69.3542 5.41927 69.75 5.85156C70.1458 6.28386 70.3438 6.93229 70.3438 7.79688V26.2969C70.3438 27.1615 70.1432 27.8099 69.7422 28.2422C69.3411 28.6745 68.8229 28.8906 68.1875 28.8906C67.5625 28.8906 67.0547 28.6667 66.6641 28.2188C66.2734 27.7708 66.0781 27.1302 66.0781 26.2969ZM79.0156 26.2969V13.9688C79.0156 13.2083 78.8125 12.6146 78.4062 12.1875C78 11.7604 77.4844 11.5469 76.8594 11.5469C76.2344 11.5469 75.7266 11.7604 75.3359 12.1875C74.9453 12.6146 74.75 13.25 74.75 14.0938V26.2969C74.75 27.1302 74.9453 27.7708 75.3359 28.2188C75.7266 28.6667 76.2344 28.8906 76.8594 28.8906C77.4844 28.8906 78 28.6719 78.4062 28.2344C78.8125 27.7969 79.0156 27.151 79.0156 26.2969ZM76.9062 9.5625C76.3125 9.5625 75.8047 9.38021 75.3828 9.01562C74.9609 8.65104 74.75 8.13542 74.75 7.46875C74.75 6.86458 74.9661 6.36719 75.3984 5.97656C75.8307 5.58594 76.3333 5.39062 76.9062 5.39062C77.4583 5.39062 77.9479 5.56771 78.375 5.92188C78.8021 6.27604 79.0156 6.79166 79.0156 7.46875C79.0156 8.125 78.8073 8.63802 78.3906 9.00781C77.974 9.37761 77.4792 9.5625 76.9062 9.5625ZM96.2969 26.3359C96.8698 25.4974 97.1562 24.4896 97.1562 23.3125C97.1562 22.5312 96.9401 21.8359 96.5078 21.2266C96.0755 20.6172 95.4401 20.0885 94.6016 19.6406C93.763 19.1927 92.6823 18.8073 91.3594 18.4844C90.2448 18.2135 89.3698 17.9844 88.7344 17.7969C88.099 17.6094 87.5938 17.3724 87.2188 17.0859C86.8438 16.7995 86.6562 16.4323 86.6562 15.9844C86.6562 15.4948 86.9115 15.0859 87.4219 14.7578C87.9323 14.4297 88.5729 14.2656 89.3438 14.2656C90.0938 14.2656 90.6875 14.3906 91.125 14.6406C91.5625 14.8906 91.9427 15.224 92.2656 15.6406C92.6615 16.1406 93.013 16.5156 93.3203 16.7656C93.6276 17.0156 94 17.1406 94.4375 17.1406C95.0417 17.1406 95.5078 16.9844 95.8359 16.6719C96.1641 16.3594 96.3281 15.9583 96.3281 15.4688C96.3281 15.0208 96.1745 14.5625 95.8672 14.0938C95.5599 13.625 95.112 13.1979 94.5234 12.8125C93.9349 12.4271 93.2005 12.1198 92.3203 11.8906C91.4401 11.6615 90.4479 11.5469 89.3438 11.5469C87.9375 11.5469 86.737 11.7734 85.7422 12.2266C84.7474 12.6797 83.9948 13.2865 83.4844 14.0469C82.974 14.8073 82.7188 15.6146 82.7188 16.4688C82.7188 17.4271 82.9948 18.2344 83.5469 18.8906C84.099 19.5469 84.8359 20.0755 85.7578 20.4766C86.6797 20.8776 87.875 21.2604 89.3438 21.625C90.6458 21.9375 91.5807 22.2656 92.1484 22.6094C92.7161 22.9531 93 23.5 93 24.25C93 24.7396 92.7266 25.1745 92.1797 25.5547C91.6328 25.9349 90.9323 26.125 90.0781 26.125C89.026 26.125 88.1953 25.9375 87.5859 25.5625C86.9766 25.1875 86.4531 24.6198 86.0156 23.8594C85.7969 23.4635 85.5677 23.1563 85.3281 22.9375C85.0885 22.7187 84.7448 22.6094 84.2969 22.6094C83.7865 22.6094 83.3646 22.776 83.0312 23.1094C82.6979 23.4427 82.5312 23.8437 82.5312 24.3125C82.5312 25.0208 82.7917 25.7266 83.3125 26.4297C83.8333 27.1328 84.6406 27.7187 85.7344 28.1875C86.8281 28.6563 88.1406 28.8906 89.6719 28.8906C91.276 28.8906 92.638 28.6745 93.7578 28.2422C94.8776 27.8099 95.724 27.1745 96.2969 26.3359ZM101 11.9219H101.469V9.35938C101.469 8.67187 101.487 8.13281 101.523 7.74219C101.56 7.35156 101.661 7.01563 101.828 6.73438C101.995 6.44271 102.234 6.20573 102.547 6.02344C102.859 5.84115 103.208 5.75 103.594 5.75C104.135 5.75 104.625 5.95312 105.062 6.35938C105.354 6.63021 105.539 6.96094 105.617 7.35156C105.695 7.74219 105.734 8.29687 105.734 9.01562V11.9219H107.297C107.901 11.9219 108.362 12.0651 108.68 12.3516C108.997 12.638 109.156 13.0052 109.156 13.4531C109.156 14.026 108.93 14.4271 108.477 14.6562C108.023 14.8854 107.375 15 106.531 15H105.734V22.8438C105.734 23.5104 105.758 24.0234 105.805 24.3828C105.852 24.7422 105.977 25.0339 106.18 25.2578C106.383 25.4818 106.714 25.5938 107.172 25.5938C107.422 25.5938 107.76 25.5495 108.188 25.4609C108.615 25.3724 108.948 25.3281 109.188 25.3281C109.531 25.3281 109.841 25.4661 110.117 25.7422C110.393 26.0182 110.531 26.3594 110.531 26.7656C110.531 27.4531 110.156 27.9792 109.406 28.3438C108.656 28.7083 107.578 28.8906 106.172 28.8906C104.839 28.8906 103.828 28.6667 103.141 28.2188C102.453 27.7708 102.003 27.151 101.789 26.3594C101.576 25.5677 101.469 24.5104 101.469 23.1875V15H100.906C100.292 15 99.8229 14.8542 99.5 14.5625C99.1771 14.2708 99.0156 13.901 99.0156 13.4531C99.0156 13.0052 99.1849 12.638 99.5234 12.3516C99.862 12.0651 100.354 11.9219 101 11.9219ZM119.883 28.2891C120.846 27.888 121.844 27.2865 122.875 26.4844C123.354 27.2656 123.807 27.862 124.234 28.2734C124.661 28.6849 125.094 28.8906 125.531 28.8906C126.052 28.8906 126.518 28.7109 126.93 28.3516C127.341 27.9922 127.547 27.5938 127.547 27.1562C127.547 26.9062 127.414 26.3464 127.148 25.4766C126.883 24.6068 126.75 23.7708 126.75 22.9688C126.76 22.1146 126.768 21.3385 126.773 20.6406C126.779 19.9427 126.781 19.0938 126.781 18.0938C126.781 16.5104 126.56 15.2396 126.117 14.2812C125.674 13.3229 124.917 12.6224 123.844 12.1797C122.771 11.737 121.297 11.5156 119.422 11.5156C117.745 11.5156 116.344 11.7448 115.219 12.2031C114.094 12.6615 113.266 13.2448 112.734 13.9531C112.203 14.6615 111.938 15.3906 111.938 16.1406C111.938 16.6198 112.112 17.013 112.461 17.3203C112.81 17.6276 113.224 17.7812 113.703 17.7812C114.234 17.7812 114.581 17.6849 114.742 17.4922C114.904 17.2995 115.18 16.901 115.57 16.2969C115.961 15.6927 116.43 15.2396 116.977 14.9375C117.523 14.6354 118.339 14.4844 119.422 14.4844C120.682 14.4844 121.513 14.7474 121.914 15.2734C122.315 15.7995 122.542 16.625 122.594 17.75C121.698 18.0104 120.867 18.2318 120.102 18.4141C119.336 18.5964 118.417 18.7969 117.344 19.0156C116.271 19.2344 115.599 19.375 115.328 19.4375C114.036 19.7188 113.021 20.2708 112.281 21.0938C111.542 21.9167 111.172 22.9115 111.172 24.0781C111.172 24.9427 111.396 25.7448 111.844 26.4844C112.292 27.224 112.93 27.8099 113.758 28.2422C114.586 28.6745 115.547 28.8906 116.641 28.8906C117.839 28.8906 118.919 28.6901 119.883 28.2891ZM122.594 20.3125C121.969 20.5417 121.06 20.7839 119.867 21.0391C118.674 21.2943 117.849 21.4818 117.391 21.6016C116.932 21.7214 116.495 21.9557 116.078 22.3047C115.661 22.6536 115.453 23.1406 115.453 23.7656C115.453 24.4115 115.698 24.9609 116.188 25.4141C116.677 25.8672 117.318 26.0938 118.109 26.0938C118.953 26.0938 119.732 25.9089 120.445 25.5391C121.159 25.1693 121.682 24.6927 122.016 24.1094C122.401 23.4635 122.594 22.401 122.594 20.9219V20.3125ZM131.812 11.9219H131.344C130.698 11.9219 130.206 12.0651 129.867 12.3516C129.529 12.638 129.359 13.0052 129.359 13.4531C129.359 13.901 129.521 14.2708 129.844 14.5625C130.167 14.8542 130.635 15 131.25 15H131.812V23.1875C131.812 24.5104 131.919 25.5677 132.133 26.3594C132.346 27.151 132.797 27.7708 133.484 28.2188C134.172 28.6667 135.182 28.8906 136.516 28.8906C137.922 28.8906 139 28.7083 139.75 28.3438C140.5 27.9792 140.875 27.4531 140.875 26.7656C140.875 26.3594 140.737 26.0182 140.461 25.7422C140.185 25.4661 139.875 25.3281 139.531 25.3281C139.292 25.3281 138.958 25.3724 138.531 25.4609C138.104 25.5495 137.766 25.5938 137.516 25.5938C137.057 25.5938 136.727 25.4818 136.523 25.2578C136.32 25.0339 136.195 24.7422 136.148 24.3828C136.102 24.0234 136.078 23.5104 136.078 22.8438V15H136.875C137.719 15 138.367 14.8854 138.82 14.6562C139.273 14.4271 139.5 14.026 139.5 13.4531C139.5 13.0052 139.341 12.638 139.023 12.3516C138.706 12.0651 138.245 11.9219 137.641 11.9219H136.078V9.01562C136.078 8.29687 136.039 7.74219 135.961 7.35156C135.883 6.96094 135.698 6.63021 135.406 6.35938C134.969 5.95312 134.479 5.75 133.938 5.75C133.552 5.75 133.203 5.84115 132.891 6.02344C132.578 6.20573 132.339 6.44271 132.172 6.73438C132.005 7.01563 131.904 7.35156 131.867 7.74219C131.831 8.13281 131.812 8.67187 131.812 9.35938V11.9219ZM158.406 20.2188C158.406 21.4896 158.208 22.6615 157.812 23.7344C157.417 24.8073 156.844 25.7292 156.094 26.5C155.344 27.2708 154.448 27.862 153.406 28.2734C152.365 28.6849 151.193 28.8906 149.891 28.8906C148.599 28.8906 147.438 28.6823 146.406 28.2656C145.375 27.849 144.482 27.2526 143.727 26.4766C142.971 25.7005 142.398 24.7839 142.008 23.7266C141.617 22.6693 141.422 21.5 141.422 20.2188C141.422 18.9271 141.62 17.7448 142.016 16.6719C142.411 15.599 142.979 14.6823 143.719 13.9219C144.458 13.1615 145.354 12.5755 146.406 12.1641C147.458 11.7526 148.62 11.5469 149.891 11.5469C151.182 11.5469 152.354 11.7552 153.406 12.1719C154.458 12.5885 155.359 13.1823 156.109 13.9531C156.859 14.724 157.43 15.6406 157.82 16.7031C158.211 17.7656 158.406 18.9375 158.406 20.2188ZM152.977 16.1562C153.742 17.125 154.125 18.4792 154.125 20.2188C154.125 21.9375 153.742 23.2838 152.977 24.2578C152.211 25.2318 151.182 25.7188 149.891 25.7188C149.036 25.7188 148.294 25.4974 147.664 25.0547C147.034 24.612 146.549 23.974 146.211 23.1406C145.872 22.3073 145.703 21.3333 145.703 20.2188C145.703 19.0937 145.875 18.1094 146.219 17.2656C146.562 16.4219 147.052 15.7839 147.688 15.3516C148.323 14.9193 149.057 14.7031 149.891 14.7031C151.182 14.7031 152.211 15.1875 152.977 16.1562ZM166 22.7344V26.2969C166 27.1615 165.797 27.8099 165.391 28.2422C164.984 28.6745 164.469 28.8906 163.844 28.8906C163.229 28.8906 162.724 28.6719 162.328 28.2344C161.932 27.7969 161.734 27.151 161.734 26.2969V14.4219C161.734 12.5052 162.427 11.5469 163.812 11.5469C164.521 11.5469 165.031 11.7708 165.344 12.2188C165.656 12.6667 165.828 13.3281 165.859 14.2031C166.37 13.3281 166.893 12.6667 167.43 12.2188C167.966 11.7708 168.682 11.5469 169.578 11.5469C170.474 11.5469 171.344 11.7708 172.188 12.2188C173.031 12.6667 173.453 13.2604 173.453 14C173.453 14.5208 173.273 14.9505 172.914 15.2891C172.555 15.6276 172.167 15.7969 171.75 15.7969C171.594 15.7969 171.216 15.7005 170.617 15.5078C170.018 15.3151 169.49 15.2188 169.031 15.2188C168.406 15.2188 167.896 15.3828 167.5 15.7109C167.104 16.0391 166.797 16.526 166.578 17.1719C166.359 17.8177 166.208 18.5859 166.125 19.4766C166.042 20.3672 166 21.4531 166 22.7344Z" fill="white"/>
</svg>
